<svg width="1488" height="555" viewBox="0 0 1488 555" fill="none" xmlns="http://www.w3.org/2000/svg">
<g clip-path="url(#clip0_48_1159)">
<rect width="1488" height="555" fill="white"/>
<path d="M0 558.083L1488 0M0 0L1488 558.083" stroke="#CFCFCF" stroke-width="2"/>
<path d="M701.089 278.84H698.169V285H696.209V271H698.169V277.08H701.129L705.529 271H707.669L702.669 277.78L707.909 285H705.629L701.089 278.84ZM713.556 274.3C715.023 274.3 716.143 274.66 716.916 275.38C717.703 276.1 718.096 277.173 718.096 278.6V285H716.276V283.6C715.956 284.093 715.496 284.473 714.896 284.74C714.309 284.993 713.609 285.12 712.796 285.12C711.609 285.12 710.656 284.833 709.936 284.26C709.229 283.687 708.876 282.933 708.876 282C708.876 281.067 709.216 280.32 709.896 279.76C710.576 279.187 711.656 278.9 713.136 278.9H716.176V278.52C716.176 277.693 715.936 277.06 715.456 276.62C714.976 276.18 714.269 275.96 713.336 275.96C712.709 275.96 712.096 276.067 711.496 276.28C710.896 276.48 710.389 276.753 709.976 277.1L709.176 275.66C709.723 275.22 710.376 274.887 711.136 274.66C711.896 274.42 712.703 274.3 713.556 274.3ZM713.116 283.64C713.849 283.64 714.483 283.48 715.016 283.16C715.549 282.827 715.936 282.36 716.176 281.76V280.28H713.216C711.589 280.28 710.776 280.827 710.776 281.92C710.776 282.453 710.983 282.873 711.396 283.18C711.809 283.487 712.383 283.64 713.116 283.64ZM727.173 274.3C728.2 274.3 729.12 274.527 729.933 274.98C730.747 275.433 731.38 276.067 731.833 276.88C732.3 277.693 732.533 278.633 732.533 279.7C732.533 280.767 732.3 281.713 731.833 282.54C731.38 283.353 730.747 283.987 729.933 284.44C729.12 284.893 728.2 285.12 727.173 285.12C726.413 285.12 725.713 284.973 725.073 284.68C724.447 284.387 723.913 283.96 723.473 283.4V288.88H721.553V274.4H723.393V276.08C723.82 275.493 724.36 275.053 725.013 274.76C725.667 274.453 726.387 274.3 727.173 274.3ZM727.013 283.44C727.693 283.44 728.3 283.287 728.833 282.98C729.38 282.66 729.807 282.22 730.113 281.66C730.433 281.087 730.593 280.433 730.593 279.7C730.593 278.967 730.433 278.32 730.113 277.76C729.807 277.187 729.38 276.747 728.833 276.44C728.3 276.133 727.693 275.98 727.013 275.98C726.347 275.98 725.74 276.14 725.193 276.46C724.66 276.767 724.233 277.2 723.913 277.76C723.607 278.32 723.453 278.967 723.453 279.7C723.453 280.433 723.607 281.087 723.913 281.66C724.22 282.22 724.647 282.66 725.193 282.98C725.74 283.287 726.347 283.44 727.013 283.44ZM742.832 276.08H738.952V285H737.032V276.08H733.152V274.4H742.832V276.08ZM744.796 274.4H746.716V282.12L753.216 274.4H754.956V285H753.036V277.28L746.556 285H744.796V274.4ZM758.682 274.4H760.602V278.9H766.642V274.4H768.562V285H766.642V280.56H760.602V285H758.682V274.4ZM776.416 280.52H774.216V285H772.296V274.4H774.216V278.88H776.456L779.896 274.4H781.956L777.936 279.5L782.236 285H779.976L776.416 280.52ZM787.833 274.3C789.3 274.3 790.42 274.66 791.193 275.38C791.98 276.1 792.373 277.173 792.373 278.6V285H790.553V283.6C790.233 284.093 789.773 284.473 789.173 284.74C788.587 284.993 787.887 285.12 787.073 285.12C785.887 285.12 784.933 284.833 784.213 284.26C783.507 283.687 783.153 282.933 783.153 282C783.153 281.067 783.493 280.32 784.173 279.76C784.853 279.187 785.933 278.9 787.413 278.9H790.453V278.52C790.453 277.693 790.213 277.06 789.733 276.62C789.253 276.18 788.547 275.96 787.613 275.96C786.987 275.96 786.373 276.067 785.773 276.28C785.173 276.48 784.667 276.753 784.253 277.1L783.453 275.66C784 275.22 784.653 274.887 785.413 274.66C786.173 274.42 786.98 274.3 787.833 274.3ZM787.393 283.64C788.127 283.64 788.76 283.48 789.293 283.16C789.827 282.827 790.213 282.36 790.453 281.76V280.28H787.493C785.867 280.28 785.053 280.827 785.053 281.92C785.053 282.453 785.26 282.873 785.673 283.18C786.087 283.487 786.66 283.64 787.393 283.64Z" fill="#5D5C61"/>
</g>
<rect x="0.5" y="0.5" width="1487" height="554" stroke="#D0D0D0"/>
<defs>
<clipPath id="clip0_48_1159">
<rect width="1488" height="555" fill="white"/>
</clipPath>
</defs>
</svg>
